<svg width="596" height="74" viewBox="0 0 596 74" fill="none" xmlns="http://www.w3.org/2000/svg">
<path d="M22.12 41.96L1.84 42V38.16L11.4 30.08C15.36 26.72 16.68 24.8 16.68 22C16.68 18.68 14.88 16.8 11.8 16.8C8.6 16.8 6.6 19.04 6.56 22.8H1.48C1.52 16.4 5.6 12.24 11.8 12.24C18.04 12.24 21.92 15.8 21.92 21.72C21.92 25.8 19.68 28.88 15.24 32.68L9.96 37.2H22.12V41.96ZM25.2747 27.44C25.2747 18.36 30.1547 12.2 37.6347 12.2C45.1147 12.2 50.0347 18.36 50.0347 27.44C50.0347 36.48 45.3947 42.52 37.6347 42.52C29.8747 42.52 25.2747 36.48 25.2747 27.44ZM30.3147 27.44C30.3147 34.2 33.0347 38 37.6347 38C42.2747 38 44.9947 34.2 44.9947 27.44C44.9947 20.52 42.2747 16.72 37.6347 16.72C33.0347 16.72 30.3147 20.52 30.3147 27.44ZM53.4778 27.44C53.4778 18.36 58.3578 12.2 65.8378 12.2C73.3178 12.2 78.2378 18.36 78.2378 27.44C78.2378 36.48 73.5978 42.52 65.8378 42.52C58.0778 42.52 53.4778 36.48 53.4778 27.44ZM58.5178 27.44C58.5178 34.2 61.2378 38 65.8378 38C70.4778 38 73.1978 34.2 73.1978 27.44C73.1978 20.52 70.4778 16.72 65.8378 16.72C61.2378 16.72 58.5178 20.52 58.5178 27.44ZM83.1609 26.48H91.1209V18.52H95.2009V26.48H103.161V30.56H95.2009V38.56H91.1209V30.56H83.1609V26.48Z" fill="black"/>
<path d="M2.544 57.544V69H1.392V57.544H2.544ZM6.1935 69H5.0895V61.256H6.0495L6.2095 62.6C6.7215 61.608 7.7455 61.048 8.8655 61.048C10.9935 61.048 11.8735 62.312 11.8735 64.264V69H10.7695V64.504C10.7695 62.696 9.9535 62.056 8.6735 62.056C7.0895 62.056 6.1935 63.208 6.1935 64.952V69ZM15.8499 69H14.7619V62.184H13.2099V61.256H14.7619V58.808H15.8499V61.256H17.4019V62.184H15.8499V69ZM22.0094 69.192C19.7374 69.192 18.2174 67.56 18.2174 65.128C18.2174 62.712 19.7214 61.048 21.9294 61.048C24.0254 61.048 25.4494 62.536 25.4494 64.728V65.272H19.2894C19.3694 67.16 20.3614 68.248 22.0254 68.248C23.2894 68.248 24.1054 67.704 24.3934 66.68H25.4494C25.0334 68.312 23.8334 69.192 22.0094 69.192ZM21.9294 61.992C20.4734 61.992 19.5134 62.952 19.3214 64.472H24.3454C24.3454 62.984 23.3854 61.992 21.9294 61.992ZM31.2625 61.16V62.152H30.6545C29.2305 62.152 28.3185 63.112 28.3185 64.584V69H27.2145V61.256H28.2545L28.3345 62.456C28.6385 61.624 29.4545 61.08 30.5425 61.08C30.7825 61.08 30.9905 61.096 31.2625 61.16ZM33.8341 69H32.7301V61.256H33.6901L33.8501 62.6C34.3621 61.608 35.3861 61.048 36.5061 61.048C38.6341 61.048 39.5141 62.312 39.5141 64.264V69H38.4101V64.504C38.4101 62.696 37.5941 62.056 36.3141 62.056C34.7301 62.056 33.8341 63.208 33.8341 64.952V69ZM43.9385 69.192C42.2905 69.192 41.3145 68.264 41.3145 66.904C41.3145 65.48 42.4025 64.584 44.2105 64.44L46.7705 64.232V63.976C46.7705 62.456 45.8585 61.976 44.7225 61.976C43.3785 61.976 42.5785 62.584 42.5785 63.624H41.5705C41.5705 62.056 42.8505 61.048 44.7545 61.048C46.5465 61.048 47.8585 61.944 47.8585 63.992V69H46.9305L46.7865 67.64C46.3065 68.616 45.2505 69.192 43.9385 69.192ZM44.1945 68.296C45.8265 68.296 46.7705 67.16 46.7705 65.48V65.064L44.4825 65.24C43.0265 65.368 42.4345 66.008 42.4345 66.872C42.4345 67.816 43.1385 68.296 44.1945 68.296ZM51.7093 69H50.6213V62.184H49.0693V61.256H50.6213V58.808H51.7093V61.256H53.2613V62.184H51.7093V69ZM55.2429 59.128C54.7949 59.128 54.4269 58.76 54.4269 58.312C54.4269 57.864 54.7949 57.48 55.2429 57.48C55.6909 57.48 56.0749 57.864 56.0749 58.312C56.0749 58.76 55.6909 59.128 55.2429 59.128ZM54.6989 69V61.256H55.8029V69H54.6989ZM57.5611 65.128C57.5611 62.76 59.2251 61.048 61.4971 61.048C63.7691 61.048 65.4331 62.76 65.4331 65.128C65.4331 67.48 63.7691 69.192 61.4971 69.192C59.2251 69.192 57.5611 67.48 57.5611 65.128ZM58.6811 65.112C58.6811 66.936 59.8331 68.2 61.4971 68.2C63.1451 68.2 64.3131 66.936 64.3131 65.112C64.3131 63.32 63.1451 62.04 61.4971 62.04C59.8331 62.04 58.6811 63.32 58.6811 65.112ZM68.3029 69H67.1989V61.256H68.1589L68.3189 62.6C68.8309 61.608 69.8549 61.048 70.9749 61.048C73.1029 61.048 73.9829 62.312 73.9829 64.264V69H72.8789V64.504C72.8789 62.696 72.0629 62.056 70.7829 62.056C69.1989 62.056 68.3029 63.208 68.3029 64.952V69ZM78.4073 69.192C76.7593 69.192 75.7833 68.264 75.7833 66.904C75.7833 65.48 76.8713 64.584 78.6793 64.44L81.2393 64.232V63.976C81.2393 62.456 80.3273 61.976 79.1913 61.976C77.8473 61.976 77.0473 62.584 77.0473 63.624H76.0393C76.0393 62.056 77.3193 61.048 79.2233 61.048C81.0153 61.048 82.3273 61.944 82.3273 63.992V69H81.3993L81.2553 67.64C80.7753 68.616 79.7193 69.192 78.4073 69.192ZM78.6633 68.296C80.2953 68.296 81.2393 67.16 81.2393 65.48V65.064L78.9513 65.24C77.4953 65.368 76.9033 66.008 76.9033 66.872C76.9033 67.816 77.6073 68.296 78.6633 68.296ZM85.6946 69H84.5906V57.336H85.6946V69ZM92.7201 69V57.544H96.9121C99.1201 57.544 100.48 58.664 100.48 60.504C100.48 61.848 99.8881 62.76 98.7041 63.224C100.032 63.656 100.704 64.584 100.704 65.992C100.704 67.832 99.3281 69 97.1521 69H92.7201ZM96.8961 58.568H93.8721V62.76H97.0401C98.4801 62.76 99.2961 61.96 99.2961 60.6C99.2961 59.32 98.4321 58.568 96.8961 58.568ZM97.1521 63.768H93.8721V67.96H97.1521C98.6561 67.96 99.5361 67.176 99.5361 65.848C99.5361 64.552 98.6401 63.768 97.1521 63.768ZM106.591 61.16V62.152H105.983C104.559 62.152 103.647 63.112 103.647 64.584V69H102.543V61.256H103.583L103.663 62.456C103.967 61.624 104.783 61.08 105.871 61.08C106.111 61.08 106.319 61.096 106.591 61.16ZM109.97 69.192C108.322 69.192 107.346 68.264 107.346 66.904C107.346 65.48 108.434 64.584 110.242 64.44L112.802 64.232V63.976C112.802 62.456 111.89 61.976 110.754 61.976C109.41 61.976 108.61 62.584 108.61 63.624H107.602C107.602 62.056 108.882 61.048 110.786 61.048C112.578 61.048 113.89 61.944 113.89 63.992V69H112.962L112.818 67.64C112.338 68.616 111.282 69.192 109.97 69.192ZM110.226 68.296C111.858 68.296 112.802 67.16 112.802 65.48V65.064L110.514 65.24C109.058 65.368 108.466 66.008 108.466 66.872C108.466 67.816 109.17 68.296 110.226 68.296ZM117.209 69H116.105V61.256H117.065L117.225 62.6C117.737 61.608 118.761 61.048 119.881 61.048C122.009 61.048 122.889 62.312 122.889 64.264V69H121.785V64.504C121.785 62.696 120.969 62.056 119.689 62.056C118.105 62.056 117.209 63.208 117.209 64.952V69ZM128.13 69.192C125.874 69.192 124.546 67.464 124.546 65.144C124.546 62.808 125.874 61.048 128.178 61.048C129.458 61.048 130.482 61.608 131.026 62.728V57.336H132.13V69H131.17L131.058 67.416C130.514 68.616 129.426 69.192 128.13 69.192ZM128.322 68.184C130.018 68.184 131.01 66.904 131.01 65.112C131.01 63.336 130.018 62.04 128.322 62.04C126.642 62.04 125.666 63.336 125.666 65.112C125.666 66.904 126.642 68.184 128.322 68.184ZM133.777 66.824H134.833C134.833 67.72 135.505 68.28 136.593 68.28C137.793 68.28 138.497 67.768 138.497 66.936C138.497 66.296 138.177 65.928 137.265 65.704L135.937 65.368C134.593 65.032 133.937 64.328 133.937 63.272C133.937 61.912 135.073 61.048 136.737 61.048C138.369 61.048 139.425 61.944 139.473 63.384H138.401C138.369 62.488 137.745 61.96 136.705 61.96C135.617 61.96 135.009 62.424 135.009 63.256C135.009 63.848 135.425 64.264 136.273 64.472L137.601 64.808C138.945 65.144 139.553 65.768 139.553 66.888C139.553 68.28 138.369 69.192 136.609 69.192C134.865 69.192 133.777 68.264 133.777 66.824Z" fill="black" fill-opacity="0.6"/>
<line x1="173.5" y1="-2.18557e-08" x2="173.5" y2="74" stroke="black" stroke-opacity="0.1"/>
<path d="M227.12 41.96L206.84 42V38.16L216.4 30.08C220.36 26.72 221.68 24.8 221.68 22C221.68 18.68 219.88 16.8 216.8 16.8C213.6 16.8 211.6 19.04 211.56 22.8H206.48C206.52 16.4 210.6 12.24 216.8 12.24C223.04 12.24 226.92 15.8 226.92 21.72C226.92 25.8 224.68 28.88 220.24 32.68L214.96 37.2H227.12V41.96ZM238.142 40.24C238.142 43.56 235.742 46.2 232.502 46.6V44.64C234.302 44.32 235.662 43.24 235.662 41.84C235.342 42 234.982 42.08 234.502 42.08C232.942 42.08 231.662 40.92 231.662 39.32C231.662 37.4 232.902 36.12 234.702 36.12C236.702 36.12 238.142 37.76 238.142 40.24ZM241.017 27.44C241.017 18.36 245.897 12.2 253.377 12.2C260.857 12.2 265.777 18.36 265.777 27.44C265.777 36.48 261.137 42.52 253.377 42.52C245.617 42.52 241.017 36.48 241.017 27.44ZM246.057 27.44C246.057 34.2 248.777 38 253.377 38C258.017 38 260.737 34.2 260.737 27.44C260.737 20.52 258.017 16.72 253.377 16.72C248.777 16.72 246.057 20.52 246.057 27.44ZM269.22 27.44C269.22 18.36 274.1 12.2 281.58 12.2C289.06 12.2 293.98 18.36 293.98 27.44C293.98 36.48 289.34 42.52 281.58 42.52C273.82 42.52 269.22 36.48 269.22 27.44ZM274.26 27.44C274.26 34.2 276.98 38 281.58 38C286.22 38 288.94 34.2 288.94 27.44C288.94 20.52 286.22 16.72 281.58 16.72C276.98 16.72 274.26 20.52 274.26 27.44ZM297.423 27.44C297.423 18.36 302.303 12.2 309.783 12.2C317.263 12.2 322.183 18.36 322.183 27.44C322.183 36.48 317.543 42.52 309.783 42.52C302.023 42.52 297.423 36.48 297.423 27.44ZM302.463 27.44C302.463 34.2 305.183 38 309.783 38C314.423 38 317.143 34.2 317.143 27.44C317.143 20.52 314.423 16.72 309.783 16.72C305.183 16.72 302.463 20.52 302.463 27.44ZM327.106 26.48H335.066V18.52H339.146V26.48H347.106V30.56H339.146V38.56H335.066V30.56H327.106V26.48Z" fill="black"/>
<path d="M207.544 69H206.392V57.544H207.544V62.648H213.736V57.544H214.872V69H213.736V63.72H207.544V69ZM217.977 59.128C217.529 59.128 217.161 58.76 217.161 58.312C217.161 57.864 217.529 57.48 217.977 57.48C218.425 57.48 218.809 57.864 218.809 58.312C218.809 58.76 218.425 59.128 217.977 59.128ZM217.433 69V61.256H218.537V69H217.433ZM220.312 64.904C220.312 62.792 221.672 61.048 223.944 61.048C225.288 61.048 226.312 61.672 226.808 62.808L226.92 61.256H227.88V68.76C227.88 71.064 226.408 72.568 224.136 72.568C222.152 72.568 220.76 71.448 220.456 69.576H221.56C221.799 70.824 222.76 71.56 224.152 71.56C225.736 71.56 226.792 70.488 226.792 68.872V67.032C226.264 68.12 225.192 68.76 223.864 68.76C221.656 68.76 220.312 67.016 220.312 64.904ZM221.416 64.888C221.416 66.472 222.392 67.768 224.024 67.768C225.704 67.768 226.696 66.552 226.696 64.888C226.696 63.24 225.736 62.024 224.04 62.024C222.376 62.024 221.416 63.32 221.416 64.888ZM231.287 68.984H230.183V57.336H231.287V62.6C231.783 61.672 232.727 61.048 234.023 61.048C236.055 61.048 236.967 62.312 236.967 64.264V69H235.863V64.504C235.863 62.696 235.015 62.056 233.815 62.056C232.151 62.056 231.287 63.288 231.287 64.776V68.984ZM239.04 65.288V64.296H243.68V65.288H239.04ZM255.135 69.656L253.919 68.28C253.055 68.872 252.015 69.192 250.847 69.192C247.631 69.192 245.391 66.744 245.391 63.272C245.391 59.8 247.647 57.336 250.847 57.336C254.063 57.336 256.303 59.784 256.303 63.272C256.303 65.048 255.711 66.552 254.719 67.592L255.919 68.936L255.135 69.656ZM255.119 63.272C255.119 60.408 253.375 58.456 250.847 58.456C248.319 58.456 246.591 60.408 246.591 63.272C246.591 66.136 248.319 68.088 250.847 68.088C251.727 68.088 252.511 67.848 253.151 67.432L251.663 65.752L252.431 65.032L253.951 66.728C254.687 65.88 255.119 64.68 255.119 63.272ZM263.592 61.256H264.696V69H263.736L263.592 67.688C263.16 68.584 262.088 69.192 260.872 69.192C259.048 69.192 258.056 67.944 258.056 66.056V61.24H259.176V65.704C259.176 67.544 259.992 68.2 261.224 68.2C262.712 68.2 263.592 67.208 263.592 65.368V61.256ZM269.22 69.192C267.572 69.192 266.596 68.264 266.596 66.904C266.596 65.48 267.684 64.584 269.492 64.44L272.052 64.232V63.976C272.052 62.456 271.14 61.976 270.004 61.976C268.66 61.976 267.86 62.584 267.86 63.624H266.852C266.852 62.056 268.132 61.048 270.036 61.048C271.828 61.048 273.14 61.944 273.14 63.992V69H272.212L272.068 67.64C271.588 68.616 270.532 69.192 269.22 69.192ZM269.476 68.296C271.108 68.296 272.052 67.16 272.052 65.48V65.064L269.764 65.24C268.308 65.368 267.716 66.008 267.716 66.872C267.716 67.816 268.42 68.296 269.476 68.296ZM276.507 69H275.403V57.336H276.507V69ZM279.399 59.128C278.951 59.128 278.583 58.76 278.583 58.312C278.583 57.864 278.951 57.48 279.399 57.48C279.847 57.48 280.231 57.864 280.231 58.312C280.231 58.76 279.847 59.128 279.399 59.128ZM278.855 69V61.256H279.959V69H278.855ZM284.037 69H282.949V62.184H281.397V61.256H282.949V58.808H284.037V61.256H285.589V62.184H284.037V69ZM286.243 72.376V71.464H287.091C287.763 71.464 288.435 71.416 288.819 70.376L289.155 69.464L286.019 61.256H287.187L289.683 68.008L292.131 61.256H293.267L289.715 70.776C289.267 71.992 288.515 72.488 287.411 72.488C286.947 72.488 286.595 72.456 286.243 72.376ZM303.604 64.792H300.388V69H299.236V57.544H303.604C305.812 57.544 307.204 58.984 307.204 61.144C307.204 63.224 305.796 64.792 303.604 64.792ZM303.444 58.584H300.388V63.752H303.38C305.044 63.752 306.004 62.696 306.004 61.128C306.004 59.544 305.028 58.584 303.444 58.584ZM312.872 61.16V62.152H312.264C310.84 62.152 309.928 63.112 309.928 64.584V69H308.824V61.256H309.864L309.944 62.456C310.248 61.624 311.064 61.08 312.152 61.08C312.392 61.08 312.6 61.096 312.872 61.16ZM313.499 65.128C313.499 62.76 315.163 61.048 317.435 61.048C319.707 61.048 321.371 62.76 321.371 65.128C321.371 67.48 319.707 69.192 317.435 69.192C315.163 69.192 313.499 67.48 313.499 65.128ZM314.619 65.112C314.619 66.936 315.771 68.2 317.435 68.2C319.083 68.2 320.251 66.936 320.251 65.112C320.251 63.32 319.083 62.04 317.435 62.04C315.771 62.04 314.619 63.32 314.619 65.112ZM326.176 69.192C323.92 69.192 322.592 67.464 322.592 65.144C322.592 62.808 323.92 61.048 326.224 61.048C327.504 61.048 328.528 61.608 329.072 62.728V57.336H330.176V69H329.216L329.104 67.416C328.56 68.616 327.472 69.192 326.176 69.192ZM326.368 68.184C328.064 68.184 329.056 66.904 329.056 65.112C329.056 63.336 328.064 62.04 326.368 62.04C324.688 62.04 323.712 63.336 323.712 65.112C323.712 66.904 324.688 68.184 326.368 68.184ZM337.92 61.256H339.024V69H338.064L337.92 67.688C337.488 68.584 336.416 69.192 335.2 69.192C333.376 69.192 332.384 67.944 332.384 66.056V61.24H333.504V65.704C333.504 67.544 334.32 68.2 335.552 68.2C337.04 68.2 337.92 67.208 337.92 65.368V61.256ZM340.624 65.144C340.624 62.712 342.112 61.048 344.368 61.048C346.16 61.048 347.472 62.088 347.776 63.688H346.672C346.384 62.616 345.456 62.024 344.384 62.024C342.816 62.024 341.712 63.224 341.712 65.128C341.712 66.968 342.736 68.2 344.304 68.2C345.456 68.2 346.384 67.56 346.688 66.568H347.808C347.44 68.152 346.064 69.192 344.304 69.192C342.112 69.192 340.624 67.576 340.624 65.144ZM351.256 69H350.168V62.184H348.616V61.256H350.168V58.808H351.256V61.256H352.808V62.184H351.256V69ZM353.59 66.824H354.646C354.646 67.72 355.318 68.28 356.406 68.28C357.606 68.28 358.31 67.768 358.31 66.936C358.31 66.296 357.99 65.928 357.078 65.704L355.75 65.368C354.406 65.032 353.75 64.328 353.75 63.272C353.75 61.912 354.886 61.048 356.55 61.048C358.182 61.048 359.238 61.944 359.286 63.384H358.214C358.182 62.488 357.558 61.96 356.518 61.96C355.43 61.96 354.822 62.424 354.822 63.256C354.822 63.848 355.238 64.264 356.086 64.472L357.414 64.808C358.758 65.144 359.366 65.768 359.366 66.888C359.366 68.28 358.182 69.192 356.422 69.192C354.678 69.192 353.59 68.264 353.59 66.824Z" fill="black" fill-opacity="0.6"/>
<line x1="393.5" y1="-2.18557e-08" x2="393.5" y2="74" stroke="black" stroke-opacity="0.1"/>
<path d="M435.36 27.52H431.8V24.2L439.32 17.28H427.16V12.76H445.72V16.84L438.6 23.4C443.08 24.28 446.56 27.56 446.56 32.72C446.56 38.72 441.88 42.52 435.96 42.52C430.24 42.52 425.8 39 425.8 32.68H430.84C430.84 36.04 432.92 37.96 436.04 37.96C439.24 37.96 441.36 35.88 441.36 32.64C441.36 29.68 439.44 27.52 435.36 27.52ZM449.493 27.44C449.493 18.36 454.373 12.2 461.853 12.2C469.333 12.2 474.253 18.36 474.253 27.44C474.253 36.48 469.613 42.52 461.853 42.52C454.093 42.52 449.493 36.48 449.493 27.44ZM454.533 27.44C454.533 34.2 457.253 38 461.853 38C466.493 38 469.213 34.2 469.213 27.44C469.213 20.52 466.493 16.72 461.853 16.72C457.253 16.72 454.533 20.52 454.533 27.44ZM483.571 40.24C483.571 43.56 481.171 46.2 477.931 46.6V44.64C479.731 44.32 481.091 43.24 481.091 41.84C480.771 42 480.411 42.08 479.931 42.08C478.371 42.08 477.091 40.92 477.091 39.32C477.091 37.4 478.331 36.12 480.131 36.12C482.131 36.12 483.571 37.76 483.571 40.24ZM486.447 27.44C486.447 18.36 491.327 12.2 498.807 12.2C506.287 12.2 511.207 18.36 511.207 27.44C511.207 36.48 506.567 42.52 498.807 42.52C491.047 42.52 486.447 36.48 486.447 27.44ZM491.487 27.44C491.487 34.2 494.207 38 498.807 38C503.447 38 506.167 34.2 506.167 27.44C506.167 20.52 503.447 16.72 498.807 16.72C494.207 16.72 491.487 20.52 491.487 27.44ZM514.65 27.44C514.65 18.36 519.53 12.2 527.01 12.2C534.49 12.2 539.41 18.36 539.41 27.44C539.41 36.48 534.77 42.52 527.01 42.52C519.25 42.52 514.65 36.48 514.65 27.44ZM519.69 27.44C519.69 34.2 522.41 38 527.01 38C531.65 38 534.37 34.2 534.37 27.44C534.37 20.52 531.65 16.72 527.01 16.72C522.41 16.72 519.69 20.52 519.69 27.44ZM542.853 27.44C542.853 18.36 547.733 12.2 555.213 12.2C562.693 12.2 567.613 18.36 567.613 27.44C567.613 36.48 562.973 42.52 555.213 42.52C547.453 42.52 542.853 36.48 542.853 27.44ZM547.893 27.44C547.893 34.2 550.613 38 555.213 38C559.853 38 562.573 34.2 562.573 27.44C562.573 20.52 559.853 16.72 555.213 16.72C550.613 16.72 547.893 20.52 547.893 27.44ZM572.536 26.48H580.496V18.52H584.576V26.48H592.536V30.56H584.576V38.56H580.496V30.56H572.536V26.48Z" fill="black"/>
<path d="M427.544 69H426.392V57.544H427.544V62.648H433.736V57.544H434.872V69H433.736V63.72H427.544V69ZM439.657 69.192C438.009 69.192 437.033 68.264 437.033 66.904C437.033 65.48 438.121 64.584 439.929 64.44L442.489 64.232V63.976C442.489 62.456 441.577 61.976 440.441 61.976C439.097 61.976 438.297 62.584 438.297 63.624H437.289C437.289 62.056 438.569 61.048 440.473 61.048C442.265 61.048 443.577 61.944 443.577 63.992V69H442.649L442.505 67.64C442.025 68.616 440.969 69.192 439.657 69.192ZM439.913 68.296C441.545 68.296 442.489 67.16 442.489 65.48V65.064L440.201 65.24C438.745 65.368 438.153 66.008 438.153 66.872C438.153 67.816 438.857 68.296 439.913 68.296ZM445.793 72.376V61.256H446.753L446.865 62.824C447.409 61.624 448.497 61.048 449.793 61.048C452.033 61.048 453.377 62.76 453.377 65.096C453.377 67.432 452.081 69.192 449.793 69.192C448.481 69.192 447.441 68.632 446.897 67.512V72.376H445.793ZM446.913 65.128C446.913 66.904 447.905 68.2 449.601 68.2C451.281 68.2 452.257 66.904 452.257 65.128C452.257 63.336 451.281 62.056 449.601 62.056C447.905 62.056 446.913 63.336 446.913 65.128ZM455.136 72.376V61.256H456.096L456.208 62.824C456.752 61.624 457.84 61.048 459.136 61.048C461.376 61.048 462.72 62.76 462.72 65.096C462.72 67.432 461.424 69.192 459.136 69.192C457.824 69.192 456.784 68.632 456.24 67.512V72.376H455.136ZM456.256 65.128C456.256 66.904 457.248 68.2 458.944 68.2C460.624 68.2 461.6 66.904 461.6 65.128C461.6 63.336 460.624 62.056 458.944 62.056C457.248 62.056 456.256 63.336 456.256 65.128ZM463.446 72.376V71.464H464.294C464.966 71.464 465.638 71.416 466.022 70.376L466.358 69.464L463.222 61.256H464.39L466.886 68.008L469.334 61.256H470.47L466.918 70.776C466.47 71.992 465.718 72.488 464.614 72.488C464.15 72.488 463.798 72.456 463.446 72.376ZM481.111 69.176C477.911 69.176 475.735 66.792 475.735 63.272C475.735 59.752 477.943 57.352 481.175 57.352C483.639 57.352 485.575 58.84 486.039 61.112H484.807C484.327 59.464 482.919 58.456 481.127 58.456C478.615 58.456 476.935 60.376 476.935 63.272C476.935 66.152 478.615 68.072 481.127 68.072C482.935 68.072 484.375 67.096 484.871 65.56H486.103C485.575 67.72 483.575 69.176 481.111 69.176ZM493.295 61.256H494.399V69H493.439L493.295 67.688C492.863 68.584 491.791 69.192 490.575 69.192C488.751 69.192 487.759 67.944 487.759 66.056V61.24H488.879V65.704C488.879 67.544 489.695 68.2 490.927 68.2C492.415 68.2 493.295 67.208 493.295 65.368V61.256ZM495.887 66.824H496.943C496.943 67.72 497.615 68.28 498.703 68.28C499.903 68.28 500.607 67.768 500.607 66.936C500.607 66.296 500.287 65.928 499.375 65.704L498.047 65.368C496.703 65.032 496.047 64.328 496.047 63.272C496.047 61.912 497.183 61.048 498.847 61.048C500.479 61.048 501.535 61.944 501.583 63.384H500.511C500.479 62.488 499.855 61.96 498.815 61.96C497.727 61.96 497.119 62.424 497.119 63.256C497.119 63.848 497.535 64.264 498.383 64.472L499.711 64.808C501.055 65.144 501.663 65.768 501.663 66.888C501.663 68.28 500.479 69.192 498.719 69.192C496.975 69.192 495.887 68.264 495.887 66.824ZM505.256 69H504.168V62.184H502.616V61.256H504.168V58.808H505.256V61.256H506.808V62.184H505.256V69ZM507.624 65.128C507.624 62.76 509.288 61.048 511.56 61.048C513.832 61.048 515.496 62.76 515.496 65.128C515.496 67.48 513.832 69.192 511.56 69.192C509.288 69.192 507.624 67.48 507.624 65.128ZM508.744 65.112C508.744 66.936 509.896 68.2 511.56 68.2C513.208 68.2 514.376 66.936 514.376 65.112C514.376 63.32 513.208 62.04 511.56 62.04C509.896 62.04 508.744 63.32 508.744 65.112ZM518.365 69H517.261V61.256H518.221L518.349 62.36C518.733 61.544 519.597 61.048 520.685 61.048C521.901 61.048 522.813 61.688 523.181 62.696C523.533 61.688 524.477 61.048 525.725 61.048C527.405 61.048 528.509 62.136 528.509 63.928V69H527.437V64.152C527.437 62.824 526.701 62.04 525.517 62.04C524.221 62.04 523.453 63.016 523.453 64.216V69H522.365V64.136C522.365 62.824 521.613 62.056 520.445 62.056C519.149 62.056 518.365 63.016 518.365 64.2V69ZM533.978 69.192C531.706 69.192 530.186 67.56 530.186 65.128C530.186 62.712 531.69 61.048 533.898 61.048C535.994 61.048 537.418 62.536 537.418 64.728V65.272H531.258C531.338 67.16 532.33 68.248 533.994 68.248C535.258 68.248 536.074 67.704 536.362 66.68H537.418C537.002 68.312 535.802 69.192 533.978 69.192ZM533.898 61.992C532.442 61.992 531.482 62.952 531.29 64.472H536.314C536.314 62.984 535.354 61.992 533.898 61.992ZM543.231 61.16V62.152H542.623C541.199 62.152 540.287 63.112 540.287 64.584V69H539.183V61.256H540.223L540.303 62.456C540.607 61.624 541.423 61.08 542.511 61.08C542.751 61.08 542.959 61.096 543.231 61.16ZM544.043 66.824H545.099C545.099 67.72 545.771 68.28 546.859 68.28C548.059 68.28 548.763 67.768 548.763 66.936C548.763 66.296 548.443 65.928 547.531 65.704L546.203 65.368C544.859 65.032 544.203 64.328 544.203 63.272C544.203 61.912 545.339 61.048 547.003 61.048C548.635 61.048 549.691 61.944 549.739 63.384H548.667C548.635 62.488 548.011 61.96 546.971 61.96C545.883 61.96 545.275 62.424 545.275 63.256C545.275 63.848 545.691 64.264 546.539 64.472L547.867 64.808C549.211 65.144 549.819 65.768 549.819 66.888C549.819 68.28 548.635 69.192 546.875 69.192C545.131 69.192 544.043 68.264 544.043 66.824Z" fill="black" fill-opacity="0.6"/>
</svg>
